<svg xmlns="http://www.w3.org/2000/svg" width="23.067" height="20.221" viewBox="0 0 23.067 20.221">
  <path id="Icon_map-food" data-name="Icon map-food" d="M23.736,8.222,21.845,23.045H15.458l-1.883-14.9h7.8l1.541-5.323.874.263L22.308,8.211l1.428.011ZM12.672,16.8s.239-1.922-3.073-1.922H4.324c-3.307,0-3.073,1.922-3.073,1.922ZM1.251,21.123s-.234,1.922,3.073,1.922H9.6c3.312,0,3.073-1.922,3.073-1.922H1.251Zm10.926-.961a1.105,1.105,0,0,0,.98-1.2,1.1,1.1,0,0,0-.98-1.2H1.7a1.106,1.106,0,0,0-.98,1.2,1.107,1.107,0,0,0,.98,1.2H12.176Z" transform="translate(-0.72 -2.825)" fill="#1b2845"/>
</svg>
