<svg width="318" height="388" viewBox="0 0 318 388" fill="none" xmlns="http://www.w3.org/2000/svg">
<path d="M97.3999 248.527L97.4 248.519V248.512C97.4 245.74 96.299 243.082 94.3393 241.122C92.3795 239.163 89.7215 238.062 86.95 238.062C84.1785 238.062 81.5205 239.163 79.5607 241.122C77.601 243.082 76.5 245.74 76.5 248.512V248.512C76.5027 267.403 83.0283 285.714 94.9735 300.35C106.919 314.985 123.551 325.047 142.059 328.835C160.566 332.622 179.814 329.904 196.549 321.138C213.283 312.372 226.478 298.097 233.902 280.726C241.326 263.354 242.525 243.952 237.295 225.799C232.065 207.646 220.728 191.856 205.2 181.097C189.671 170.338 170.904 165.271 152.071 166.753C135.126 168.085 119.063 174.645 106.065 185.455V176.962C106.065 174.19 104.965 171.532 103.005 169.572C101.045 167.613 98.387 166.512 95.6155 166.512C92.844 166.512 90.186 167.613 88.2262 169.572C86.2665 171.532 85.1655 174.19 85.1655 176.962V212.737C85.1655 215.508 86.2665 218.166 88.2262 220.126C90.186 222.086 92.844 223.187 95.6155 223.187H131.629C134.4 223.187 137.058 222.086 139.018 220.126C140.978 218.166 142.079 215.508 142.079 212.737C142.079 209.965 140.978 207.307 139.018 205.347C137.058 203.388 134.4 202.287 131.629 202.287H118.803C128.027 194.356 139.437 189.307 151.607 187.854C165.816 186.158 180.171 189.47 192.2 197.219C204.229 204.968 213.18 216.67 217.51 230.308C221.84 243.946 221.279 258.668 215.923 271.937C210.568 285.206 200.752 296.192 188.168 303.003C175.584 309.813 161.018 312.023 146.98 309.25C132.942 306.478 120.31 298.897 111.261 287.813C102.211 276.729 97.309 262.836 97.3999 248.527Z" fill="#2B283A" stroke="#2B283A" stroke-width="5"/>
<path fill-rule="evenodd" clip-rule="evenodd" d="M265 35.2727H53C43.243 35.2727 35.3333 43.1688 35.3333 52.9091V335.091C35.3333 344.831 43.243 352.727 53 352.727H265C274.757 352.727 282.667 344.831 282.667 335.091V52.9091C282.667 43.1688 274.757 35.2727 265 35.2727ZM53 0C23.7289 0 0 23.6882 0 52.9091V335.091C0 364.312 23.7289 388 53 388H265C294.271 388 318 364.312 318 335.091V52.9091C318 23.6882 294.271 0 265 0H53Z" fill="#2B283A"/>
<rect x="75" y="76" width="168" height="21" rx="8" fill="#2B283A"/>
<rect x="75" y="110" width="168" height="21" rx="8" fill="#2B283A"/>
</svg>
