<svg xmlns="http://www.w3.org/2000/svg" width="20.141" height="20.146" viewBox="0 0 20.141 20.146">
  <path id="Icon_ionic-ios-settings" data-name="Icon ionic-ios-settings" d="M22.978,14.57a2.592,2.592,0,0,1,1.663-2.418A10.273,10.273,0,0,0,23.4,9.158a2.626,2.626,0,0,1-1.054.226,2.586,2.586,0,0,1-2.365-3.64A10.242,10.242,0,0,0,16.988,4.5a2.589,2.589,0,0,1-4.836,0A10.273,10.273,0,0,0,9.158,5.743a2.586,2.586,0,0,1-2.365,3.64,2.541,2.541,0,0,1-1.054-.226,10.5,10.5,0,0,0-1.238,3,2.591,2.591,0,0,1,.005,4.836,10.273,10.273,0,0,0,1.243,2.995A2.587,2.587,0,0,1,9.163,23.4a10.333,10.333,0,0,0,2.995,1.243,2.585,2.585,0,0,1,4.825,0A10.273,10.273,0,0,0,19.978,23.4a2.59,2.59,0,0,1,3.414-3.414,10.333,10.333,0,0,0,1.243-2.995A2.6,2.6,0,0,1,22.978,14.57Zm-8.361,4.191a4.2,4.2,0,1,1,4.2-4.2A4.195,4.195,0,0,1,14.618,18.761Z" transform="translate(-4.5 -4.5)" fill="#1b2845"/>
</svg>
