<svg xmlns="http://www.w3.org/2000/svg" width="290.978" height="343.748" viewBox="0 0 290.978 343.748">
  <g id="Group_47" data-name="Group 47" transform="translate(-42.463 -468.252)">
    <g id="Group_46" data-name="Group 46" transform="translate(-1.703 457.496)">
      <g id="Group_22" data-name="Group 22" transform="translate(44.166 11.252)">
        <g id="Group_8" data-name="Group 8" transform="translate(7.413)">
          <g id="Group_1" data-name="Group 1" transform="translate(0 62.073)">
            <path id="Path_1" data-name="Path 1" d="M84.441,106.852s12.058,31.757,6.284,35.493-36,6.793-36,20.718,106.65-5.434,106.65-5.434-7.133-13.926-19.7-13.586-26.153,5.774-25.813-26.832-30.229-9.85-30.229-9.85" transform="translate(-54.722 -99.637)" fill="#ffafa4"/>
            <path id="Path_2" data-name="Path 2" d="M130.087,133.637c-1.109-3.948-1.705-9.27-1.631-16.426.339-32.606-30.229-9.85-30.229-9.85l-1.189-.509s2.852,7.513,5.118,15.66A58.3,58.3,0,0,0,130.087,133.637Z" transform="translate(-67.319 -99.637)" fill="#ea8d83"/>
          </g>
          <g id="Group_3" data-name="Group 3" transform="translate(9.186)">
            <path id="Path_3" data-name="Path 3" d="M88.137,50.038c.452-.679,11.548-18.341,31.021-12.454,0,0,7.246,1.585,11.322,13.813s14.265,44.833,2.264,52.759S97.421,102.57,89.5,81.512,88.137,50.038,88.137,50.038Z" transform="translate(-73.095 -18.734)" fill="#ffafa4"/>
            <g id="Group_2" data-name="Group 2">
              <path id="Path_4" data-name="Path 4" d="M88.845,43.518s2.037,12.567,2.037,14.435-3.056,6.114-3.056,6.114l2.886,12.4-3.906,1.019s-2.377-10.189-6.284-9.68-1.359,5.944-1.359,5.944S66.258,53.708,67.956,43.179c1.392-8.631,12.4-11.718,12.4-11.718S84.259,13.8,111.771,11.252l-3.4,4.075A36.006,36.006,0,0,1,123.489,13.8c9,.849,10.529-2.547,10.529-2.547s2.037,14.944-8.662,22.926a29.035,29.035,0,0,0,10.36-12.227s-5.944,16.3-18.172,18.341S98.864,34.857,88.845,43.518Z" transform="translate(-67.802 -11.252)" fill="#054b66"/>
              <path id="Path_5" data-name="Path 5" d="M70.2,34.831s6.793-4.925,12.4-2.207c0,0-2.547-9,17.832-20.889" transform="translate(-68.515 -11.396)" fill="none" stroke="#054b66" stroke-miterlimit="10" stroke-width="1.934"/>
              <path id="Path_6" data-name="Path 6" d="M154.687,33.014S146.2,48.3,132.1,46.94" transform="translate(-86.943 -17.73)" fill="none" stroke="#054b66" stroke-miterlimit="10" stroke-width="1.934"/>
            </g>
          </g>
          <g id="Group_7" data-name="Group 7" transform="translate(18.088 35.574)">
            <g id="Group_4" data-name="Group 4" transform="translate(19.274)">
              <path id="Path_7" data-name="Path 7" d="M122.515,75.624c.229,1.9.355,5-1.521,6.269-2.971,2.009-4.639-2.5-5.141-4.416" transform="translate(-110.282 -65.989)" fill="none" stroke="#01334c" stroke-miterlimit="10" stroke-width="1.856"/>
              <path id="Path_8" data-name="Path 8" d="M149.819,70.274c.23,1.9.355,5-1.52,6.269-2.971,2.009-4.639-2.5-5.141-4.415" transform="translate(-118.41 -64.397)" fill="none" stroke="#01334c" stroke-miterlimit="10" stroke-width="1.856"/>
              <path id="Path_9" data-name="Path 9" d="M120.656,65.443s-6.793-7.3-12.736,4.585" transform="translate(-107.92 -62.298)" fill="none" stroke="#01334c" stroke-miterlimit="10" stroke-width="3.869"/>
              <path id="Path_10" data-name="Path 10" d="M140.564,65.56s2.207-6.623,7.982-2.037" transform="translate(-117.638 -61.905)" fill="none" stroke="#01334c" stroke-miterlimit="10" stroke-width="3.869"/>
              <path id="Path_11" data-name="Path 11" d="M138.7,70.976s1.457,8.079,5.431,11.788" transform="translate(-117.084 -64.606)" fill="none" stroke="#ff8973" stroke-miterlimit="10" stroke-width="1.934"/>
            </g>
            <g id="Group_5" data-name="Group 5" transform="translate(3.14 12.472)">
              <path id="Path_12" data-name="Path 12" d="M112.272,92.384s14.435-13.2,20.04-12.707,12.906,6.766,12.906,6.766,6.454,29.539-6.963,33.005-22.077-2.476-22.077-2.476Z" transform="translate(-93.082 -79.664)" fill="#01334c"/>
              <path id="Path_13" data-name="Path 13" d="M84.948,93.225l29.04,6.793-3.736,19.53L91.741,106.471" transform="translate(-84.948 -83.701)" fill="none" stroke="#01334c" stroke-miterlimit="10" stroke-width="0.967"/>
            </g>
            <g id="Group_6" data-name="Group 6" transform="translate(0 20.754)">
              <path id="Path_14" data-name="Path 14" d="M92.108,104.416S89.391,90.49,83.447,91.509s-1.359,9.68,0,12.4S94.485,113.247,92.108,104.416Z" transform="translate(-80.477 -91.456)" fill="#ffafa4"/>
              <path id="Path_15" data-name="Path 15" d="M83.256,98.45s.119-4.5,2.737-3.576,4.283,9.007,4.283,9.007-3.927,3.047-.119,4.106" transform="translate(-81.304 -92.436)" fill="none" stroke="#ff8973" stroke-miterlimit="10" stroke-width="1.833"/>
            </g>
          </g>
        </g>
        <g id="Group_16" data-name="Group 16" transform="translate(0 96.29)">
          <g id="Group_14" data-name="Group 14">
            <g id="Group_9" data-name="Group 9" transform="translate(99.458 10.19)">
              <path id="Path_16" data-name="Path 16" d="M185.782,162.866S200.726,166.6,208.2,189.7s14.944,52.985,12.906,60.118-28.191,12.227-28.191,12.227Z" transform="translate(-185.782 -162.866)" fill="#fff"/>
              <path id="Path_17" data-name="Path 17" d="M209.888,200.319c-.2-.608-.4-1.2-.608-1.776-5.583,10.316-11.361,20.578-17.823,30.362l3.147,43.759s26.153-5.095,28.191-12.227S217.36,223.415,209.888,200.319Z" transform="translate(-187.471 -173.487)" fill="#f2f6f7"/>
            </g>
            <g id="Group_11" data-name="Group 11" transform="translate(27.792)">
              <path id="Path_18" data-name="Path 18" d="M99.363,159.008l-15.624,4.076,48.57,58.759,11.888-60.8-12.227-2.717-9.171-2.717L120.76,166.82l-5.434-10.529Z" transform="translate(-83.739 -150.517)" fill="#f2f6f7"/>
              <g id="Group_10" data-name="Group 10" transform="translate(7.472)">
                <path id="Path_19" data-name="Path 19" d="M94.378,157.867l21.058,10.19,3.057-13.926-19.36-5.774Z" transform="translate(-94.378 -148.357)" fill="#fff"/>
                <path id="Path_20" data-name="Path 20" d="M139.355,153.6l5.434,13.246,10.529-8.491-5.095-9.51Z" transform="translate(-107.767 -148.501)" fill="#fff"/>
                <path id="Path_21" data-name="Path 21" d="M143.2,155.611l-12.5,6.453-15.045-4.415,1.019,15.284,14.636-6.453,13.215,4.076Z" transform="translate(-100.713 -150.517)" fill="#01334c"/>
              </g>
            </g>
            <g id="Group_13" data-name="Group 13" transform="translate(0 10.19)">
              <path id="Path_22" data-name="Path 22" d="M78.209,163.885s-14.944,3.736-24.455,10.529c0,0,20.04,19.02,30.569,83.214s6.793,60.8,6.793,60.8l80.836-11.548s-15.284-127.709-25.473-144.011H133.911l-14.6,45.513Z" transform="translate(-47.02 -162.866)" fill="#01334c"/>
              <g id="Group_12" data-name="Group 12" transform="translate(0 11.548)">
                <path id="Path_23" data-name="Path 23" d="M50.9,179.309S66.184,189.5,74.676,232.294l1.7,29.55,79.477,5.095s-90.346,29.55-102.234,16.983-9.433-83.576-8.831-91.705C45.465,183.045,50.9,179.309,50.9,179.309Z" transform="translate(-44.166 -179.309)" fill="#fff"/>
                <path id="Path_24" data-name="Path 24" d="M98.548,297.374c5.684,6.712,11.316,13.467,17.008,20.171,27.355-5.934,56.485-15.46,56.485-15.46Z" transform="translate(-60.355 -214.456)" fill="#f2f6f7"/>
              </g>
            </g>
          </g>
          <g id="Group_15" data-name="Group 15" transform="translate(36.656 127.029)">
            <path id="Path_25" data-name="Path 25" d="M104.252,362.638,96.36,458.569h37.925l-7.842-97.743Z" transform="translate(-96.36 -338.636)" fill="#01334c"/>
            <path id="Path_26" data-name="Path 26" d="M104.373,339.646s43.928.906,78.8-10.416c0,0,19.021,80.987,21.285,119.933H118.864l-3.623-106.347-10.416-.453Z" transform="translate(-98.745 -329.23)" fill="#00d7cf"/>
          </g>
        </g>
        <g id="Group_21" data-name="Group 21" transform="translate(26.384 158.025)">
          <g id="Group_17" data-name="Group 17" transform="translate(0 21.986)">
            <ellipse id="Ellipse_1" data-name="Ellipse 1" cx="55.872" cy="12.567" rx="55.872" ry="12.567" transform="matrix(0.993, -0.114, 0.114, 0.993, 0, 12.735)" fill="#00d7cf"/>
            <path id="Path_27" data-name="Path 27" d="M174.651,287.334c.264,2.613-7.893,5.578-18.22,6.622s-18.913-.227-19.177-2.839,7.893-5.578,18.22-6.622S174.386,284.721,174.651,287.334Z" transform="translate(-98.26 -272.497)" fill="#01334c" opacity="0.1"/>
          </g>
          <g id="Group_20" data-name="Group 20" transform="translate(40.261)">
            <g id="Group_18" data-name="Group 18">
              <path id="Path_28" data-name="Path 28" d="M139.065,241.062c.185,1.828,5.908,2.747,12.782,2.051s12.3-2.74,12.112-4.569-5.908-2.747-12.782-2.052S138.88,239.234,139.065,241.062Z" transform="translate(-139.06 -236.26)" fill="none" stroke="#fff" stroke-miterlimit="10" stroke-width="1.516"/>
              <path id="Path_29" data-name="Path 29" d="M151.177,236.493c-6.874.7-12.3,2.741-12.112,4.569l3.342,33.049c.185,1.829,5.908,2.747,12.782,2.052s12.3-2.741,12.112-4.569l-3.342-33.049C163.774,236.716,158.051,235.8,151.177,236.493Z" transform="translate(-139.06 -236.26)" fill="none" stroke="#fff" stroke-miterlimit="10" stroke-width="1.516"/>
              <path id="Path_30" data-name="Path 30" d="M151.177,236.493c-6.874.7-12.3,2.741-12.112,4.569l3.342,33.049c.185,1.829,5.908,2.747,12.782,2.052s12.3-2.741,12.112-4.569l-3.342-33.049C163.774,236.716,158.051,235.8,151.177,236.493Z" transform="translate(-139.06 -236.26)" fill="#fff" opacity="0.5"/>
              <path id="Path_31" data-name="Path 31" d="M155.618,280.4c-6.875.7-12.3,2.741-12.113,4.569l.224,2.215c.185,1.829,5.908,2.747,12.782,2.052s12.3-2.741,12.112-4.569l-.224-2.216C168.214,280.619,162.492,279.7,155.618,280.4Z" transform="translate(-140.382 -249.33)" fill="#fff"/>
            </g>
            <g id="Group_19" data-name="Group 19" transform="translate(2.776 9.102)">
              <path id="Path_32" data-name="Path 32" d="M153.273,249.454c-5.82.589-10.412,2.321-10.255,3.869l2.311,22.851c.157,1.548,5,2.326,10.823,1.737s10.412-2.32,10.255-3.868L164.1,251.191C163.939,249.643,159.094,248.865,153.273,249.454Z" transform="translate(-143.014 -249.232)" fill="#fd8"/>
              <path id="Path_33" data-name="Path 33" d="M153.273,249.454c-5.82.589-10.412,2.321-10.255,3.869l.813,8.041c.157,1.548,5,2.325,10.822,1.737s10.412-2.32,10.256-3.869l-.813-8.04C163.939,249.643,159.094,248.865,153.273,249.454Z" transform="translate(-143.014 -249.232)" fill="#fff"/>
              <path id="Path_34" data-name="Path 34" d="M164.175,251.128c.155,1.534-4.455,3.256-10.3,3.847s-10.7-.173-10.86-1.707,4.455-3.256,10.3-3.847S164.02,249.594,164.175,251.128Z" transform="translate(-143.014 -249.221)" fill="#01334c" opacity="0.05"/>
            </g>
          </g>
        </g>
      </g>
      <g id="Group_45" data-name="Group 45" transform="translate(105.855 124.125)">
        <g id="Group_36" data-name="Group 36" transform="translate(61.328)">
          <path id="Path_35" data-name="Path 35" d="M329.58,403.9s-8.428-71.636-1.4-73.04,86.384,0,88.491,9.13-14.046,100.43-14.046,100.43l-1.4,9.091h-73.04Z" transform="translate(-250.898 -219.129)" fill="#01334c"/>
          <g id="Group_35" data-name="Group 35">
            <g id="Group_23" data-name="Group 23" transform="translate(0 174.698)">
              <path id="Path_36" data-name="Path 36" d="M280.451,437.107s-62.505,9.832-61.1,21.069a167.978,167.978,0,0,0,3.16,18.221H333.124s12.642-11.9,2.107-42.8S280.451,437.107,280.451,437.107Z" transform="translate(-219.327 -420.717)" fill="#01334c"/>
              <path id="Path_37" data-name="Path 37" d="M311.451,437.107s-62.505,9.832-61.1,21.069,2.985,18.221,2.985,18.221H364.124s12.642-11.9,2.107-42.8S311.451,437.107,311.451,437.107Z" transform="translate(-228.555 -420.717)" fill="#054b66"/>
            </g>
            <g id="Group_28" data-name="Group 28" transform="translate(57.723)">
              <g id="Group_26" data-name="Group 26">
                <g id="Group_24" data-name="Group 24">
                  <path id="Path_38" data-name="Path 38" d="M359.732,185.778s.013-12.644-14.492-13.585c-17.435-1.132-13.133,15.4-21.284,17.888s-15.4,8.6-10.643,21.285c5.2,13.861-9.736,13.812-7.472,25.813s33.512,20.379,47.551-1.359C362.719,221.377,359.732,185.778,359.732,185.778Z" transform="translate(-302.734 -172.019)" fill="#e0555c"/>
                  <path id="Path_39" data-name="Path 39" d="M357.584,186.269s.523-12.633-13.932-14.159c-17.375-1.834-13.743,14.856-21.988,17.016s-15.732,7.977-11.492,20.838c4.635,14.059-10.285,13.408-8.506,25.491" transform="translate(-301.517 -171.969)" fill="none" stroke="#e0555c" stroke-miterlimit="10" stroke-width="1.934"/>
                </g>
                <g id="Group_25" data-name="Group 25" transform="translate(21.715 17.684)">
                  <path id="Path_40" data-name="Path 40" d="M360.428,271.192a25.24,25.24,0,0,1,2.287,16.53c-1.872,9.51,19.751.453,19.751.453l.832-25.361Z" transform="translate(-340.769 -216.697)" fill="#ea8d83"/>
                  <path id="Path_41" data-name="Path 41" d="M364.775,197.526s-17.662-4.415-28.531,16.983,3.057,43.475,22.417,40.079,28.556-29.826,19.36-45.513C372.248,199.224,364.775,197.526,364.775,197.526Z" transform="translate(-332.436 -197.149)" fill="#ffafa4"/>
                </g>
              </g>
              <g id="Group_27" data-name="Group 27" transform="translate(29.146 28.237)">
                <path id="Path_42" data-name="Path 42" d="M369.778,237.824s1.812-6.34,5.208-5.661,1.358,8.152,1.358,8.152" transform="translate(-350.984 -218.11)" fill="none" stroke="#01334c" stroke-miterlimit="10" stroke-width="1.934"/>
                <path id="Path_43" data-name="Path 43" d="M343.018,228.474s1.811-6.34,5.208-5.661,1.358,8.152,1.358,8.152" transform="translate(-343.018 -215.326)" fill="none" stroke="#01334c" stroke-miterlimit="10" stroke-width="1.934"/>
                <path id="Path_44" data-name="Path 44" d="M369.456,221.661s8.831-4.755,13.586,4.3" transform="translate(-350.888 -214.627)" fill="none" stroke="#01334c" stroke-miterlimit="10" stroke-width="3.869"/>
                <path id="Path_45" data-name="Path 45" d="M343.985,213.321s7.246-4.529,10.869,4.415" transform="translate(-343.306 -212.175)" fill="none" stroke="#01334c" stroke-miterlimit="10" stroke-width="2.902"/>
                <path id="Path_46" data-name="Path 46" d="M354.36,228.315s-.453,11.435-7.473,10.3a14.139,14.139,0,0,0,3.623,3.736" transform="translate(-344.17 -216.98)" fill="none" stroke="#ff8973" stroke-miterlimit="10" stroke-width="1.934"/>
                <path id="Path_47" data-name="Path 47" d="M348.983,253.625s2.151,6.68,10.189,3.283" transform="translate(-344.794 -224.514)" fill="none" stroke="#ff8973" stroke-miterlimit="10" stroke-width="1.934"/>
              </g>
            </g>
            <g id="Group_33" data-name="Group 33" transform="translate(66.396 75.122)">
              <g id="Group_29" data-name="Group 29" transform="translate(3.416 53.364)">
                <path id="Path_48" data-name="Path 48" d="M318.729,357.865l7.842,46.246,12.9,1.785-4.413-50.978Z" transform="translate(-318.729 -354.918)" fill="#ea8d83"/>
              </g>
              <g id="Group_31" data-name="Group 31">
                <path id="Path_49" data-name="Path 49" d="M372.833,278.934s-17.662,1.019-29.889,3.736c0,0,4.755,10.189-2.378,11.887s-25.473-1.7-26.492,15.624,2.038,29.55,2.038,29.55l8.831,1.7s-1.7,12.567,4.755,20.379l1.358,20.379L383.7,395.094s25.473-70.647,15.284-93.4c-6.369-14.222-24.256-3.561-25.813-12.906A54.37,54.37,0,0,1,372.833,278.934Z" transform="translate(-313.866 -278.934)" fill="#00d7cf"/>
                <g id="Group_30" data-name="Group 30" transform="translate(0.002 37.998)">
                  <path id="Path_50" data-name="Path 50" d="M325.623,342.591a92.406,92.406,0,0,1-11.753-9.552,102.386,102.386,0,0,0,2.243,22.8l8.242,1.585A113.586,113.586,0,0,1,325.623,342.591Z" transform="translate(-313.869 -333.039)" fill="#01334c" opacity="0.1"/>
                  <path id="Path_51" data-name="Path 51" d="M405.7,359.511c-1.351,2.627-6.34,10.416-6.34,10.416l-2.839-.24c-20.309,14.683-60.109,15.637-60.109,15.637l1.358,20.379,52.646,12.906s11.763-32.629,16.1-60.681C406.24,358.461,405.965,358.99,405.7,359.511Z" transform="translate(-320.579 -340.449)" fill="#01334c" opacity="0.1"/>
                </g>
              </g>
              <g id="Group_32" data-name="Group 32" transform="translate(33.154 60.797)">
                <path id="Path_52" data-name="Path 52" d="M392.534,370.973A71.507,71.507,0,0,1,375,365.5l-13.925,49.589s9.85,12.567,18,4.076,24.794-47.211,24.794-47.211l-.234-.057A61.412,61.412,0,0,1,392.534,370.973Z" transform="translate(-361.073 -365.502)" fill="#ffafa4"/>
                <path id="Path_53" data-name="Path 53" d="M387.545,372.033c5.258,2.135,10.728,4.066,16.418,4.564,1.116.1,2.232.159,3.347.205,1.332-2.99,2.131-4.847,2.131-4.847l-.234-.057a61.412,61.412,0,0,1-11.1-.925A71.507,71.507,0,0,1,380.57,365.5l-.78,2.78A53.154,53.154,0,0,0,387.545,372.033Z" transform="translate(-366.645 -365.502)" fill="#ea8d83"/>
              </g>
            </g>
            <g id="Group_34" data-name="Group 34" transform="translate(106.376 6.102)">
              <path id="Path_54" data-name="Path 54" d="M370.986,199.41s-1.811-12.228,5.661-15.4,24.681-6.34,27.172,1.811,1.132,19.247,8.831,20.379,12.453,2.038,6.567,11.548,2.849,6.078,7.7,10.642c3.849,3.623,3.622,14.492-8.379,19.927s-31.927,10.416-34.87,1.584,9.284-17.435,4.076-20.152-7.925-.679-3.849-10.643S372.8,214.355,370.986,199.41Z" transform="translate(-370.793 -180.658)" fill="#ff696a"/>
              <path id="Path_55" data-name="Path 55" d="M387.8,255.4c-3.493-.636-6.032-2.178-6.817-5-2.492-8.969,10.156-16.942,5.092-19.92s-7.88-1.081-3.3-10.824-10.839-5.312-11.891-20.329c0,0-1.189-12.3,6.435-15.091" transform="translate(-370.799 -181.723)" fill="none" stroke="#ff696a" stroke-miterlimit="10" stroke-width="1.934"/>
              <path id="Path_56" data-name="Path 56" d="M390.379,183.069c7.516-1.918,16.061-2.23,18.149,3.2,3.061,7.955,2.49,19.118,10.25,19.7s12.566,1.152,7.366,11.055,3.272,5.861,8.432,10.072c2.847,2.323,3.977,8.278.509,13.8" transform="translate(-376.624 -180.999)" fill="none" stroke="#ff696a" stroke-miterlimit="10" stroke-width="1.934"/>
            </g>
          </g>
        </g>
        <g id="Group_44" data-name="Group 44" transform="translate(0 147.479)">
          <g id="Group_39" data-name="Group 39" transform="translate(0 27.457)">
            <g id="Group_37" data-name="Group 37" transform="translate(37.84 29.664)">
              <rect id="Rectangle_1" data-name="Rectangle 1" width="9.343" height="25.779" transform="translate(0 0)" fill="#fff"/>
              <path id="Path_57" data-name="Path 57" d="M195.225,475.931V463.294h-9.343v11.661C188.991,475.322,192.107,475.639,195.225,475.931Z" transform="translate(-185.882 -463.294)" fill="#01334c" opacity="0.3"/>
            </g>
            <g id="Group_38" data-name="Group 38" transform="translate(159.641 31.024)">
              <rect id="Rectangle_2" data-name="Rectangle 2" width="9.343" height="24.419" fill="#fff"/>
              <path id="Path_58" data-name="Path 58" d="M359.312,477.867V465.23h9.343v11.661C365.546,477.258,362.43,477.575,359.312,477.867Z" transform="translate(-359.312 -465.23)" fill="#01334c" opacity="0.3"/>
            </g>
            <path id="Path_59" data-name="Path 59" d="M326.5,441.067c-18.88-4.448-51.548-7.388-88.691-7.388s-69.811,2.94-88.691,7.388H132v8.865c0,8.976,47.373,16.253,105.811,16.253s105.811-7.277,105.811-16.253v-8.865Z" transform="translate(-132.003 -424.814)" fill="#c43d4b"/>
            <ellipse id="Ellipse_2" data-name="Ellipse 2" cx="105.81" cy="16.253" rx="105.81" ry="16.253" transform="translate(0)" fill="#ff696a"/>
          </g>
          <g id="Group_43" data-name="Group 43" transform="translate(90.91)">
            <path id="Path_60" data-name="Path 60" d="M299.036,435.223c0,2.627-8.414,4.755-18.794,4.755s-18.794-2.129-18.794-4.755,8.414-4.755,18.794-4.755S299.036,432.6,299.036,435.223Z" transform="translate(-261.448 -396.401)" fill="#c43d4b"/>
            <g id="Group_42" data-name="Group 42" transform="translate(4.868)">
              <g id="Group_40" data-name="Group 40">
                <path id="Path_61" data-name="Path 61" d="M268.38,385.289c0,1.837,5.6,3.327,12.51,3.327s12.51-1.49,12.51-3.327-5.6-3.328-12.51-3.328S268.38,383.451,268.38,385.289Z" transform="translate(-268.38 -381.961)" fill="none" stroke="#fff" stroke-miterlimit="10" stroke-width="1.516"/>
                <path id="Path_62" data-name="Path 62" d="M280.89,381.961c-6.909,0-12.51,1.49-12.51,3.328v33.217c0,1.838,5.6,3.328,12.51,3.328s12.51-1.49,12.51-3.328V385.289C293.4,383.451,287.8,381.961,280.89,381.961Z" transform="translate(-268.38 -381.961)" fill="none" stroke="#fff" stroke-miterlimit="10" stroke-width="1.516"/>
                <path id="Path_63" data-name="Path 63" d="M280.89,381.961c-6.909,0-12.51,1.49-12.51,3.328v33.217c0,1.838,5.6,3.328,12.51,3.328s12.51-1.49,12.51-3.328V385.289C293.4,383.451,287.8,381.961,280.89,381.961Z" transform="translate(-268.38 -381.961)" fill="#fff" opacity="0.5"/>
                <path id="Path_64" data-name="Path 64" d="M280.89,426.088c-6.909,0-12.51,1.49-12.51,3.328v2.226c0,1.838,5.6,3.328,12.51,3.328s12.51-1.49,12.51-3.328v-2.226C293.4,427.578,287.8,426.088,280.89,426.088Z" transform="translate(-268.38 -395.097)" fill="#fff"/>
              </g>
              <g id="Group_41" data-name="Group 41" transform="translate(1.917 9.12)">
                <path id="Path_65" data-name="Path 65" d="M281.7,394.973c-5.85,0-10.592,1.261-10.592,2.818v22.968c0,1.556,4.743,2.817,10.592,2.817s10.593-1.261,10.593-2.817V397.791C292.3,396.234,287.552,394.973,281.7,394.973Z" transform="translate(-271.11 -394.955)" fill="#fd8"/>
                <path id="Path_66" data-name="Path 66" d="M281.7,394.973c-5.85,0-10.592,1.261-10.592,2.818v8.081c0,1.556,4.743,2.817,10.592,2.817s10.593-1.261,10.593-2.817v-8.081C292.3,396.234,287.552,394.973,281.7,394.973Z" transform="translate(-271.11 -394.955)" fill="#fff"/>
                <ellipse id="Ellipse_3" data-name="Ellipse 3" cx="10.633" cy="2.791" rx="10.633" ry="2.791" transform="translate(0.004)" fill="#01334c" opacity="0.05"/>
              </g>
            </g>
          </g>
        </g>
      </g>
    </g>
  </g>
</svg>
