<svg xmlns="http://www.w3.org/2000/svg" width="32.998" height="28.5" viewBox="0 0 32.998 28.5">
  <g id="Icon_material-record-voice-over" data-name="Icon material-record-voice-over" transform="translate(-1.5 -3)">
    <path id="Path_13" data-name="Path 13" d="M19.5,13.5a6,6,0,1,1-6-6A6,6,0,0,1,19.5,13.5Z" fill="#1b2845"/>
    <path id="Path_14" data-name="Path 14" d="M13.5,22.5c-4.005,0-12,2.01-12,6v3h24v-3C25.5,24.51,17.505,22.5,13.5,22.5ZM25.14,8.04l-2.52,2.535a4.976,4.976,0,0,1,0,5.835l2.52,2.535A7.676,7.676,0,0,0,25.14,8.04ZM30.1,3,27.66,5.445a11.968,11.968,0,0,1,0,16.11L30.1,24A14.744,14.744,0,0,0,30.1,3Z" fill="#1b2845"/>
  </g>
</svg>
